<?xml version="1.0" encoding="UTF-8"?>
<svg width="56px" height="53px" viewBox="0 0 56 53" version="1.1" xmlns="http://www.w3.org/2000/svg" xmlns:xlink="http://www.w3.org/1999/xlink">
    <!-- Generator: Sketch 50.2 (55047) - http://www.bohemiancoding.com/sketch -->
    <title>Group</title>
    <desc>Created with Sketch.</desc>
    <defs></defs>
    <g id="Page-1" stroke="none" stroke-width="1" fill="none" fill-rule="evenodd">
        <g id="Home" transform="translate(-1130.000000, -3773.000000)" fill="#FFFFFF">
            <g id="Group" transform="translate(1130.000000, 3773.000000)">
                <polygon id="Fill-1" points="16.5381702 16.0171864 16.5381702 13.4806749 7.14893617 13.4806749 7.14893617 26.1638453 9.86165957 26.1638453 9.86165957 21.2535094 15.745234 21.2535094 15.745234 18.7169979 9.86165957 18.7169979 9.86165957 16.0171864"></polygon>
                <polygon id="Fill-2" points="17.8723404 15.3137403 20.6908085 15.3137403 20.6908085 12.8679169 17.8723404 12.8679169"></polygon>
                <polygon id="Fill-3" points="17.8723404 26.2560653 20.5499149 26.2560653 20.5499149 16.5444646 17.8723404 16.5444646"></polygon>
                <path d="M22.6442553,16.568546 L22.6442553,26.2801467 L25.3218298,26.2801467 L25.3218298,22.6927553 C25.3218298,21.5211621 25.5774043,20.6574798 26.0882553,20.1017083 C26.5988085,19.5462432 27.3005957,19.2683575 28.1930213,19.2683575 L28.3342128,19.2683575 L28.3342128,16.387476 C27.547234,16.3510169 26.9160426,16.5296359 26.4403404,16.921801 C25.9646383,17.3145788 25.592,17.8489037 25.3218298,18.5253885 L25.3218298,16.568546 L22.6442553,16.568546 Z" id="Fill-4"></path>
                <path d="M33.7155745,24.1421423 C33.5335745,24.2751108 33.2491064,24.3412887 32.8612766,24.3412887 C32.414766,24.3412887 31.936383,24.2447793 31.4258298,24.0514542 C30.9149787,23.8584354 30.4008511,23.5686009 29.8843404,23.1819506 L28.7393191,24.9935695 C29.3734894,25.5012395 30.0398298,25.8722644 30.7386383,26.1081762 C31.4371489,26.3434753 32.1213617,26.4614312 32.7909787,26.4614312 C33.3074894,26.4614312 33.7831915,26.3980107 34.2177872,26.2711698 C34.6520851,26.1443289 35.0339574,25.9540676 35.3628085,25.7003858 C35.6913617,25.446704 35.9466383,25.1237806 36.1289362,24.7310027 C36.3109362,24.3385312 36.4020851,23.8703842 36.4020851,23.3268679 L36.4020851,23.2904088 C36.4020851,22.8437082 36.3139149,22.4634919 36.1378723,22.1491471 C35.9615319,21.8351087 35.7384255,21.5694781 35.4685532,21.351949 C35.1980851,21.1344199 34.8930638,20.9505926 34.5525957,20.7992413 C34.2118298,20.6481965 33.8770213,20.5182918 33.5481702,20.4095273 C33.2899149,20.3130179 33.0462553,20.2256999 32.8171915,20.1469605 C32.5881277,20.0685275 32.3855745,19.9839669 32.2095319,19.8932787 C32.0334894,19.8025905 31.8922979,19.7060812 31.7868511,19.6034442 C31.6811064,19.5008072 31.628383,19.3831577 31.628383,19.2501892 L31.628383,19.2140365 C31.628383,19.0207114 31.7102979,18.8604752 31.8747234,18.7336343 C32.0391489,18.6067934 32.2857872,18.543373 32.6146383,18.543373 C32.9551064,18.543373 33.3485957,18.6248698 33.7948085,18.7881698 C34.2410213,18.9511634 34.6991489,19.1717562 35.1688936,19.4493356 L36.1905957,17.5470285 C35.6737872,17.1968374 35.107234,16.9220154 34.4909362,16.7225627 C33.8740426,16.52311 33.266383,16.4235368 32.6673617,16.4235368 C32.197617,16.4235368 31.7514043,16.4900211 31.3287234,16.6229895 C30.9060426,16.755958 30.538766,16.9551043 30.2277872,17.2207349 C29.9165106,17.4866719 29.6698723,17.8095953 29.4878723,18.190118 C29.3055745,18.5706407 29.2150213,19.0087626 29.2150213,19.503871 L29.2150213,19.5400238 C29.2150213,20.0112346 29.2999149,20.4095273 29.4702979,20.7358209 C29.640383,21.0621145 29.8605106,21.3369364 30.1309787,21.5602867 C30.4008511,21.7839434 30.7034894,21.9650133 31.038,22.103803 C31.3728085,22.2428991 31.7043404,22.3605486 32.0334894,22.457058 C32.2914468,22.5416186 32.5380851,22.6200516 32.7731064,22.6926634 C33.0081277,22.7649688 33.2163404,22.8406444 33.3986383,22.9190775 C33.5806383,22.9978169 33.7245106,23.0912624 33.8302553,23.200027 C33.936,23.3087915 33.9887234,23.4356324 33.9887234,23.5805497 L33.9887234,23.6167024 C33.9887234,23.8342315 33.8975745,24.0091739 33.7155745,24.1421423" id="Fill-6"></path>
                <path d="M40.7355021,14.0862329 L38.0579277,14.0862329 L38.0579277,16.5685154 L36.9304809,16.5685154 L36.9304809,18.9239569 L38.0579277,18.9239569 L38.0579277,23.5260755 C38.0579277,24.0818469 38.1252468,24.5469302 38.2604809,24.9213253 C38.395417,25.2957204 38.5833745,25.5978101 38.8240553,25.8269816 C39.0647362,26.0567658 39.3524809,26.2166956 39.6872894,26.3073838 C40.0220979,26.398072 40.3947362,26.4434161 40.8058,26.4434161 C41.2520128,26.4434161 41.6455021,26.391638 41.9862681,26.2893075 C42.3267362,26.1866705 42.6380128,26.0509446 42.9198,25.881517 L42.9198,23.6709927 C42.5087362,23.8885218 42.068183,23.9972863 41.5987362,23.9972863 C41.0229489,23.9972863 40.7355021,23.6844734 40.7355021,23.0585412 L40.7355021,18.9239569 L42.9549489,18.9239569 L42.9549489,16.5685154 L40.7355021,16.5685154 L40.7355021,14.0862329 Z" id="Fill-8"></path>
                <path d="M18.5127362,36.3643962 C18.5127362,36.7268425 18.457034,37.0681487 18.3453319,37.3880083 C18.2336298,37.7081744 18.072183,37.9891239 17.8609915,38.2305505 C17.6495021,38.4722835 17.3942255,38.6625449 17.0948638,38.8013346 C16.7952043,38.9404306 16.4517574,39.0096723 16.0642255,39.0096723 C15.7002255,39.0096723 15.365417,38.9370604 15.0600979,38.7921432 C14.7544809,38.6475323 14.4902681,38.4511434 14.2674596,38.2032828 C14.0443532,37.956035 13.8736723,37.6720217 13.7566085,37.3518556 C13.6389489,37.031996 13.5802681,36.6903834 13.5802681,36.3282435 L13.5802681,36.2920908 C13.5802681,35.9296444 13.6359702,35.5883383 13.7476723,35.2681722 C13.8590766,34.9483126 14.0208213,34.6673631 14.2323106,34.42563 C14.4435021,34.1842034 14.6990766,33.9939421 14.9984383,33.854846 C15.2980979,33.7160563 15.6412468,33.6465083 16.0290766,33.6465083 C16.4046936,33.6465083 16.7424809,33.7191201 17.0418426,33.8640374 C17.3412043,34.0089546 17.6024383,34.2056499 17.8255447,34.4528978 C18.0486511,34.700452 18.219034,34.9844653 18.3366936,35.3046313 C18.4540553,35.624491 18.5127362,35.9657971 18.5127362,36.3282435 L18.5127362,36.3643962 Z M20.7676298,38.293971 C21.0258851,37.6842768 21.1551617,37.0286258 21.1551617,36.3282435 L21.1551617,36.2920908 C21.1551617,35.5917084 21.0258851,34.9360574 20.7676298,34.3260569 C20.5090766,33.7160563 20.1537149,33.1844888 19.7018426,32.7316607 C19.2496723,32.2788326 18.7123106,31.9225138 18.0900553,31.6627045 C17.4675021,31.4028951 16.7922255,31.2729904 16.0642255,31.2729904 C15.3243106,31.2729904 14.6430766,31.4059589 14.0208213,31.6715894 C13.3982681,31.9375264 12.8582255,32.2999727 12.4000979,32.758622 C11.9419702,33.2178841 11.5836298,33.7525154 11.3256723,34.3622096 C11.0671191,34.9725165 10.9378426,35.6278611 10.9378426,36.3282435 L10.9378426,36.3643962 C10.9378426,37.0650849 11.0671191,37.7204295 11.3256723,38.3304301 C11.5836298,38.9404306 11.9392894,39.4716918 12.3914596,39.9248263 C12.8433319,40.3776544 13.3806936,40.7342795 14.0032468,40.9937825 C14.6255021,41.2532855 15.3007787,41.3831902 16.0290766,41.3831902 C16.7689915,41.3831902 17.4499277,41.2502217 18.072183,40.9848975 C18.6947362,40.7189606 19.2350766,40.3568206 19.6929064,39.8975585 C20.151034,39.4386028 20.5090766,38.9042779 20.7676298,38.293971 Z" id="Fill-10"></path>
                <path d="M24.3960128,36.2919682 C24.3960128,35.9295219 24.4517149,35.5885221 24.563417,35.2683561 C24.6751191,34.94819 24.836566,34.6675469 25.0477574,34.4258139 C25.2592468,34.1840809 25.5148213,33.9941259 25.814183,33.8547235 C26.1138426,33.7162402 26.4569915,33.6466921 26.8448213,33.6466921 C27.2204383,33.6466921 27.5582255,33.7189976 27.8575872,33.8639148 C28.1569489,34.0088321 28.418183,34.2055274 28.6415872,34.4527752 C28.8643957,34.7006358 29.0347787,34.9843427 29.1524383,35.3045088 C29.2695021,35.6246748 29.3284809,35.9656746 29.3284809,36.3281209 L29.3284809,36.3642736 C29.3284809,36.72672 29.2724809,37.0683325 29.1610766,37.3881922 C29.0493745,37.7083582 28.8882255,37.9893077 28.6767362,38.2307344 C28.4652468,38.4724674 28.2099702,38.6627287 27.9106085,38.801212 C27.6109489,38.9403081 27.2675021,39.0098561 26.8799702,39.0098561 C26.5156723,39.0098561 26.1811617,38.9372443 25.8758426,38.792327 C25.5702255,38.6474098 25.3060128,38.4510208 25.0832043,38.2034666 C24.8600979,37.9559124 24.689417,37.6718991 24.5723532,37.3517331 C24.4546936,37.0318734 24.3960128,36.6905673 24.3960128,36.3281209 L24.3960128,36.2919682 Z M24.8189915,40.9936599 C25.4412468,41.2531629 26.1162255,41.383374 26.8448213,41.383374 C27.5847362,41.383374 28.2653745,41.2500991 28.8882255,40.984775 C29.5104809,40.7191444 30.0508213,40.3566981 30.5086511,39.897436 C30.9667787,39.4387867 31.3248213,38.9041553 31.5833745,38.2941548 C31.8413319,37.6841543 31.9709064,37.0288096 31.9709064,36.3281209 L31.9709064,36.2919682 C31.9709064,35.5915859 31.8413319,34.9362412 31.5833745,34.3259343 C31.3248213,33.7162402 30.9694596,33.1843663 30.5175872,32.7315381 C30.065417,32.27871 29.5280553,31.9223913 28.9058,31.6625819 C28.2832468,31.4027725 27.6079702,31.2731742 26.8799702,31.2731742 C26.1400553,31.2731742 25.4588213,31.4061427 24.836566,31.6714669 C24.2140128,31.9374038 23.6736723,32.2998502 23.2158426,32.7588059 C22.7577149,33.218068 22.3993745,33.7523929 22.141417,34.3623934 C21.8828638,34.972394 21.7535872,35.6277386 21.7535872,36.3281209 L21.7535872,36.3642736 C21.7535872,37.0649624 21.8828638,37.7206134 22.141417,38.3303075 C22.3993745,38.9403081 22.7547362,39.4715692 23.2072043,39.9247037 C23.6590766,40.3775318 24.1964383,40.734157 24.8189915,40.9936599 Z" id="Fill-12"></path>
                <polygon id="Fill-14" points="38.840766 31.4542442 35.7053617 34.9874065 35.7053617 27.9391582 33.0274894 27.9391582 33.0274894 41.1658449 35.7053617 41.1658449 35.7053617 38.212658 36.6388936 37.1979308 39.1049787 41.1658449 42.1700851 41.1658449 38.453234 35.277241 42.046766 31.4542442"></polygon>
                <g id="Group-3" opacity="0.5" transform="translate(0.000000, 44.471264)">
                    <polygon id="Fill-16" points="2.89377021 5.61121976 1.65819574 1.80844393 -5.95744681e-05 1.80844393 2.17321702 7.528233 3.59406809 7.528233 5.76704681 1.80844393 4.13977021 1.80844393"></polygon>
                    <path d="M7.42500426,4.20242796 C7.4869617,3.83538595 7.61891915,3.54218127 7.82147234,3.32312031 C8.02372766,3.1046721 8.29002553,2.99498843 8.61947234,2.99498843 C8.94921702,2.99498843 9.21313191,3.10589761 9.41240851,3.32863513 C9.61138723,3.55106626 9.73500426,3.84243267 9.78325957,4.20242796 L7.42500426,4.20242796 Z M10.6533447,2.63989519 C10.4302383,2.35404361 10.1505362,2.12640403 9.8142383,1.95667008 C9.47764255,1.78754889 9.07938723,1.70268191 8.61947234,1.70268191 C8.22121702,1.70268191 7.85394043,1.78050217 7.51764255,1.93583631 C7.18104681,2.09117045 6.89270638,2.30287832 6.65262128,2.5712663 C6.4122383,2.83965429 6.22517447,3.15369273 6.09142979,3.51399441 C5.95738723,3.8739897 5.89066383,4.25543153 5.89066383,4.65770712 L5.89066383,4.67915365 C5.89066383,5.10992248 5.96245106,5.50515136 6.10691915,5.86545303 C6.25108936,6.22544833 6.45185532,6.53642299 6.70921702,6.79745787 C6.96657872,7.05879914 7.27219574,7.26009013 7.62577021,7.40133083 C7.97934468,7.54226516 8.36211064,7.6130387 8.77406809,7.6130387 C9.27508936,7.6130387 9.71117447,7.51959312 10.0817277,7.33239556 C10.4528766,7.14519801 10.7683234,6.8860014 11.0292596,6.55388659 L10.1332596,5.73830576 C9.91372766,5.94327329 9.70104681,6.09156072 9.49491915,6.18316803 C9.28879149,6.27508172 9.05555745,6.32103857 8.79462128,6.32103857 C8.4443234,6.32103857 8.15121702,6.2272866 7.91411064,6.04039543 C7.67730213,5.85319788 7.52091915,5.5759249 7.44555745,5.20857651 L11.2866213,5.20857651 C11.2934723,5.13106263 11.2985362,5.05691892 11.3024085,4.98614538 C11.3056851,4.91567821 11.3074723,4.84858122 11.3074723,4.78485439 C11.3074723,4.38227242 11.2541532,3.99592853 11.1478128,3.62520998 C11.0411745,3.25449142 10.8764511,2.92605316 10.6533447,2.63989519 Z" id="Fill-19"></path>
                    <path d="M15.447183,1.70262064 C15.2482043,1.70262064 15.0694809,1.72743733 14.9119064,1.77676435 C14.7534383,1.82609136 14.609566,1.89318836 14.4790979,1.97805533 C14.3486298,2.06292231 14.2303745,2.16004444 14.124034,2.26942174 C14.0173957,2.37879903 13.9196936,2.49369115 13.8303319,2.61348533 L13.8303319,1.80862776 L12.2650128,1.80862776 L12.2650128,7.48583015 L13.8303319,7.48583015 L13.8303319,4.31909708 C13.8303319,3.93765525 13.9179064,3.6499654 14.0930553,3.45572113 C14.2682043,3.26147686 14.5065021,3.16435472 14.8085447,3.16435472 C15.1108851,3.16435472 15.3441191,3.26147686 15.5091404,3.45572113 C15.6738638,3.6499654 15.7560766,3.93765525 15.7560766,4.31909708 L15.7560766,7.48583015 L17.3213957,7.48583015 L17.3213957,3.81050798 C17.3213957,3.15363146 17.1584596,2.63830202 16.8322894,2.2642133 C16.5061191,1.88981819 16.044417,1.70262064 15.447183,1.70262064" id="Fill-21"></path>
                    <path d="M20.2973489,0.357433112 L18.7320298,0.357433112 L18.7320298,1.80844393 L18.0731362,1.80844393 L18.0731362,3.18561742 L18.7320298,3.18561742 L18.7320298,5.8759312 C18.7320298,6.20099929 18.7716468,6.47275744 18.850583,6.69151203 C18.9295191,6.91057299 19.0391362,7.08704728 19.1800298,7.22124127 C19.3209234,7.35543526 19.4889234,7.44888085 19.6846255,7.50188441 C19.8806255,7.55488797 20.0983702,7.58154295 20.3387532,7.58154295 C20.5996894,7.58154295 20.8296468,7.55121143 21.0286255,7.49146753 C21.2276043,7.43141725 21.4096043,7.35206509 21.5746255,7.25310469 L21.5746255,5.96079817 C21.3339447,6.08794545 21.076583,6.15136589 20.8019447,6.15136589 C20.4656468,6.15136589 20.2973489,5.96845765 20.2973489,5.60264115 L20.2973489,3.18561742 L21.5948809,3.18561742 L21.5948809,1.80844393 L20.2973489,1.80844393 L20.2973489,0.357433112 Z" id="Fill-23"></path>
                    <path d="M25.9924298,4.97569786 C25.9924298,5.35713968 25.9048553,5.64482954 25.7297064,5.83876743 C25.5545574,6.03331807 25.3159617,6.13013383 25.014217,6.13013383 C24.7118766,6.13013383 24.4783447,6.03331807 24.3136213,5.83876743 C24.1491957,5.64482954 24.0666851,5.35713968 24.0666851,4.97569786 L24.0666851,1.8086584 L22.5010681,1.8086584 L22.5010681,5.48398057 C22.5010681,6.14085709 22.6643021,6.65618653 22.9904723,7.03058164 C23.3163447,7.40497674 23.7783447,7.5921743 24.3755787,7.5921743 C24.5745574,7.5921743 24.752983,7.56705122 24.9111532,7.51772421 C25.0687277,7.46839719 25.2131957,7.40130019 25.3436638,7.3167396 C25.473834,7.23187262 25.5923872,7.13475049 25.6990255,7.02506681 C25.805366,6.9159959 25.9030681,6.80110378 25.9924298,6.68100323 L25.9924298,7.48586079 L27.5577489,7.48586079 L27.5577489,1.8086584 L25.9924298,1.8086584 L25.9924298,4.97569786 Z" id="Fill-25"></path>
                    <path d="M30.3173872,2.9525243 L30.3173872,1.80850521 L28.7520681,1.80850521 L28.7520681,7.48601398 L30.3173872,7.48601398 L30.3173872,5.3888499 C30.3173872,4.70378652 30.4666213,4.19887397 30.7653872,3.87411225 C31.0641532,3.54935054 31.4743234,3.38666331 31.9961957,3.38666331 L32.0784085,3.38666331 L32.0784085,1.70249808 C31.6184936,1.68135794 31.2494298,1.78552679 30.971217,2.01500464 C30.6933021,2.24448249 30.4752596,2.55698904 30.3173872,2.9525243" id="Fill-27"></path>
                    <path d="M33.9631064,4.20242796 C34.024766,3.83538595 34.1567234,3.54218127 34.3595745,3.32312031 C34.5618298,3.1046721 34.8281277,2.99498843 35.1575745,2.99498843 C35.4873191,2.99498843 35.751234,3.10589761 35.9505106,3.32863513 C36.1497872,3.55106626 36.2731064,3.84243267 36.3213617,4.20242796 L33.9631064,4.20242796 Z M37.1914468,2.63989519 C36.9683404,2.35404361 36.6883404,2.12640403 36.3523404,1.95667008 C36.0157447,1.78754889 35.6174894,1.70268191 35.1575745,1.70268191 C34.7593191,1.70268191 34.3920426,1.78050217 34.0557447,1.93583631 C33.7194468,2.09117045 33.4308085,2.30287832 33.1907234,2.5712663 C32.9503404,2.83965429 32.7632766,3.15369273 32.629234,3.51399441 C32.4954894,3.8739897 32.428766,4.25543153 32.428766,4.65770712 L32.428766,4.67915365 C32.428766,5.10992248 32.5005532,5.50515136 32.6447234,5.86545303 C32.7891915,6.22544833 32.9896596,6.53642299 33.2473191,6.79745787 C33.5046809,7.05879914 33.8102979,7.26009013 34.1638723,7.40133083 C34.5171489,7.54226516 34.9002128,7.6130387 35.3121702,7.6130387 C35.8131915,7.6130387 36.2492766,7.51959312 36.6198298,7.33239556 C36.9906809,7.14519801 37.3064255,6.8860014 37.5673617,6.55388659 L36.6713617,5.73830576 C36.4515319,5.94327329 36.2391489,6.09156072 36.0330213,6.18316803 C35.8268936,6.27508172 35.5936596,6.32103857 35.3327234,6.32103857 C34.9824255,6.32103857 34.6893191,6.2272866 34.4522128,6.04039543 C34.2154043,5.85319788 34.0590213,5.5759249 33.9836596,5.20857651 L37.8247234,5.20857651 C37.8315745,5.13106263 37.8369362,5.05691892 37.8405106,4.98614538 C37.8437872,4.91567821 37.8455745,4.84858122 37.8455745,4.78485439 C37.8455745,4.38227242 37.7922553,3.99592853 37.6859149,3.62520998 C37.5792766,3.25449142 37.4145532,2.92605316 37.1914468,2.63989519 Z" id="Fill-29"></path>
                    <path d="M42.3044255,4.60500993 C42.1465532,4.47786266 41.9681277,4.37032364 41.7691489,4.28178012 C41.5698723,4.19354297 41.3741702,4.11786737 41.1820426,4.05414054 C41.0310213,3.99776681 40.8886383,3.94660152 40.7545957,3.90064467 C40.6208511,3.85468783 40.5022979,3.80536081 40.399234,3.75205087 C40.2964681,3.69935369 40.2139574,3.64267358 40.152,3.58292968 C40.0903404,3.5228794 40.0596596,3.45394413 40.0596596,3.37612387 L40.0596596,3.35498372 C40.0596596,3.24223626 40.107617,3.14848429 40.2038298,3.07434058 C40.2997447,3.00019687 40.4439149,2.96312501 40.6363404,2.96312501 C40.8353191,2.96312501 41.0652766,3.01092013 41.3262128,3.10589761 C41.5871489,3.20148785 41.8546383,3.3304734 42.1295745,3.49285426 L42.7268085,2.38069858 C42.4244681,2.17573105 42.0935319,2.01518847 41.7331064,1.89876446 C41.372383,1.78203407 41.0173191,1.72382206 40.6670213,1.72382206 C40.392383,1.72382206 40.1317447,1.76273219 39.8845106,1.84024607 C39.6372766,1.91806633 39.4225106,2.03449034 39.2408085,2.18982448 C39.0588085,2.345465 38.9146383,2.53419445 38.8082979,2.75662558 C38.7016596,2.97905672 38.6489362,3.23488316 38.6489362,3.52471767 L38.6489362,3.54555144 C38.6489362,3.82098614 38.698383,4.05414054 38.7981702,4.24470826 C38.8973617,4.43558236 39.0263404,4.59612494 39.1842128,4.72664239 C39.3420851,4.85746621 39.5187234,4.96347333 39.7147234,5.04466376 C39.9101277,5.12585419 40.1040426,5.19478946 40.2964681,5.25116319 C40.4474894,5.30049021 40.5916596,5.34644705 40.7289787,5.38872735 C40.8662979,5.43100765 40.9878298,5.4754326 41.0944681,5.52108307 C41.2008085,5.56734629 41.2851064,5.62157537 41.346766,5.6853022 C41.4087234,5.74872265 41.4394043,5.82317274 41.4394043,5.90773333 L41.4394043,5.92887348 C41.4394043,6.05602076 41.3860851,6.15865771 41.2800426,6.23617159 C41.1734043,6.31399185 41.0071915,6.3525956 40.7802128,6.3525956 C40.5192766,6.3525956 40.2395745,6.29622187 39.9411064,6.18316803 C39.6423404,6.07042057 39.3420851,5.90068662 39.0400426,5.67488531 L38.3707234,6.73403743 C38.7412766,7.03061227 39.1308936,7.24752859 39.5395745,7.38539913 C39.9479574,7.52296329 40.348,7.59220493 40.7391064,7.59220493 C41.0411489,7.59220493 41.3193617,7.5548267 41.5734468,7.48068299 C41.827234,7.40653928 42.0503404,7.29532371 42.242766,7.14703628 C42.4348936,6.99874886 42.5841277,6.81001941 42.690766,6.58023518 C42.7971064,6.35106371 42.8504255,6.07716091 42.8504255,5.75944591 L42.8504255,5.73830576 C42.8504255,5.47727087 42.7988936,5.25483974 42.6958298,5.07101235 C42.592766,4.88749135 42.4622979,4.73215721 42.3044255,4.60500993" id="Fill-31"></path>
                </g>
                <polygon id="Fill-34" points="48.4833702 0.111276843 46.5877106 2.06107264 50.609583 6.19780155 0.132731915 6.19780155 0.132731915 41.1176515 9.5452 41.1176515 9.5452 38.3194923 2.8532 38.3194923 2.8532 8.99596072 50.6256681 8.99596072 46.5877106 13.1492341 48.4833702 15.0990299 55.7690298 7.60500017"></polygon>
            </g>
        </g>
    </g>
</svg>